<?xml version="1.0" encoding="UTF-8"?>
<!DOCTYPE svg PUBLIC "-//W3C//DTD SVG 1.1//EN" "http://www.w3.org/Graphics/SVG/1.1/DTD/svg11.dtd">
<svg xmlns="http://www.w3.org/2000/svg" version="1.1" width="512px" height="512px" style="shape-rendering:geometricPrecision; text-rendering:geometricPrecision; image-rendering:optimizeQuality; fill-rule:evenodd; clip-rule:evenodd" xmlns:xlink="http://www.w3.org/1999/xlink">
<g><path style="opacity:0.985" fill="#000000" d="M 155.5,-0.5 C 237.5,-0.5 319.5,-0.5 401.5,-0.5C 437.077,33.5756 472.244,68.2423 507,103.5C 508,105.167 509,106.833 510,108.5C 510.667,231.167 510.667,353.833 510,476.5C 504.984,494.682 493.484,506.348 475.5,511.5C 356.833,511.5 238.167,511.5 119.5,511.5C 61.5814,502.092 23.4147,469.426 5,413.5C -9.10131,350.111 10.0654,299.611 62.5,262C 80.2647,251.19 99.4314,244.357 120,241.5C 120.333,172.5 120.667,103.5 121,34.5C 126.016,16.3183 137.516,4.65165 155.5,-0.5 Z M 165.5,29.5 C 237.167,29.5 308.833,29.5 380.5,29.5C 380.333,59.8352 380.5,90.1685 381,120.5C 382.5,124.667 385.333,127.5 389.5,129C 419.832,129.5 450.165,129.667 480.5,129.5C 480.667,241.834 480.5,354.167 480,466.5C 479.167,475.333 474.333,480.167 465.5,481C 384.167,481.667 302.833,481.667 221.5,481C 249.127,457.927 265.46,428.427 270.5,392.5C 324.164,391.667 377.83,391.167 431.5,391C 439.915,386.652 442.748,379.819 440,370.5C 438.5,366.333 435.667,363.5 431.5,362C 377.833,361.667 324.167,361.333 270.5,361C 267.707,339.618 260.373,319.951 248.5,302C 309.5,301.667 370.5,301.333 431.5,301C 439.915,296.652 442.748,289.819 440,280.5C 438.5,276.333 435.667,273.5 431.5,272C 361.167,271.667 290.833,271.333 220.5,271C 200.372,254.728 177.372,245.061 151.5,242C 150.336,176.237 150.169,110.404 151,44.5C 152.012,35.6566 156.845,30.6566 165.5,29.5 Z M 410.5,52.5 C 426.299,67.7982 441.965,83.2982 457.5,99C 441.837,99.4999 426.17,99.6666 410.5,99.5C 410.5,83.8333 410.5,68.1667 410.5,52.5 Z M 134.5,271.5 C 180.014,273.878 212.514,295.545 232,336.5C 249.085,387.015 236.918,428.848 195.5,462C 155.495,487.996 115.495,487.996 75.5,462C 35.6124,430.652 22.779,390.486 37,341.5C 55.1727,298.154 87.6727,274.821 134.5,271.5 Z"/></g>
<g><path style="opacity:0.993" fill="#000000" d="M 199.5,181.5 C 276.834,181.333 354.167,181.5 431.5,182C 440.475,187.152 442.975,194.652 439,204.5C 437.235,207.473 434.735,209.64 431.5,211C 354.167,211.667 276.833,211.667 199.5,211C 190.525,205.848 188.025,198.348 192,188.5C 194.015,185.588 196.515,183.255 199.5,181.5 Z"/></g>
<g><path style="opacity:0.943" fill="#000000" d="M 178.5,334.5 C 195.783,333.076 202.283,340.742 198,357.5C 173.5,383.333 148.333,408.5 122.5,433C 115.786,435.469 109.453,434.803 103.5,431C 92.3034,420.137 81.47,408.971 71,397.5C 66.6993,380.592 73.1993,373.092 90.5,375C 98.7657,381.262 106.432,388.262 113.5,396C 114.167,396.667 114.833,396.667 115.5,396C 136.091,374.907 157.091,354.407 178.5,334.5 Z"/></g>
</svg>
