<?xml version="1.0" encoding="UTF-8"?>
<!DOCTYPE svg PUBLIC "-//W3C//DTD SVG 1.1//EN" "http://www.w3.org/Graphics/SVG/1.1/DTD/svg11.dtd">
<svg xmlns="http://www.w3.org/2000/svg" version="1.1" width="512px" height="512px" style="shape-rendering:geometricPrecision; text-rendering:geometricPrecision; image-rendering:optimizeQuality; fill-rule:evenodd; clip-rule:evenodd" xmlns:xlink="http://www.w3.org/1999/xlink">
<g><path style="opacity:0.953" fill="#000000" d="M 104.5,63.5 C 115.522,60.4341 123.022,64.1008 127,74.5C 127.499,79.4889 127.666,84.4889 127.5,89.5C 148.833,89.5 170.167,89.5 191.5,89.5C 190.901,82.6086 191.735,75.942 194,69.5C 197.225,64.6376 201.725,62.6376 207.5,63.5C 215.544,63.0355 220.71,66.7021 223,74.5C 223.499,79.4889 223.666,84.4889 223.5,89.5C 244.833,89.5 266.167,89.5 287.5,89.5C 286.901,82.6086 287.735,75.942 290,69.5C 293.225,64.6376 297.725,62.6376 303.5,63.5C 311.544,63.0355 316.71,66.7021 319,74.5C 319.499,79.4889 319.666,84.4889 319.5,89.5C 340.833,89.5 362.167,89.5 383.5,89.5C 382.901,82.6086 383.735,75.942 386,69.5C 389.225,64.6376 393.725,62.6376 399.5,63.5C 407.544,63.0355 412.71,66.7021 415,74.5C 415.499,79.4889 415.666,84.4889 415.5,89.5C 429.218,89.0939 442.885,89.5939 456.5,91C 465.862,94.3603 471.695,100.86 474,110.5C 474.667,220.833 474.667,331.167 474,441.5C 469.833,459 459,469.833 441.5,474C 317.5,474.667 193.5,474.667 69.5,474C 51.9873,469.821 41.1539,458.987 37,441.5C 36.3333,331.167 36.3333,220.833 37,110.5C 39.305,100.86 45.1384,94.3603 54.5,91C 68.1154,89.5939 81.7821,89.0939 95.5,89.5C 93.0773,78.7009 96.0773,70.0343 104.5,63.5 Z M 109.5,74.5 C 111.722,74.178 113.556,74.8446 115,76.5C 115.667,92.8333 115.667,109.167 115,125.5C 112.667,128.167 110.333,128.167 108,125.5C 107.333,109.167 107.333,92.8333 108,76.5C 108.717,75.9558 109.217,75.2891 109.5,74.5 Z M 205.5,74.5 C 207.722,74.178 209.556,74.8446 211,76.5C 211.667,92.8333 211.667,109.167 211,125.5C 208.667,128.167 206.333,128.167 204,125.5C 203.333,109.167 203.333,92.8333 204,76.5C 204.717,75.9558 205.217,75.2891 205.5,74.5 Z M 301.5,74.5 C 303.722,74.178 305.556,74.8446 307,76.5C 307.667,92.8333 307.667,109.167 307,125.5C 304.667,128.167 302.333,128.167 300,125.5C 299.333,109.167 299.333,92.8333 300,76.5C 300.717,75.9558 301.217,75.2891 301.5,74.5 Z M 397.5,74.5 C 399.722,74.178 401.556,74.8446 403,76.5C 403.667,92.8333 403.667,109.167 403,125.5C 400.667,128.167 398.333,128.167 396,125.5C 395.333,109.167 395.333,92.8333 396,76.5C 396.717,75.9558 397.217,75.2891 397.5,74.5 Z M 59.5,101.5 C 71.5,101.5 83.5,101.5 95.5,101.5C 95.6633,103.857 95.4966,106.19 95,108.5C 82.9966,121.208 82.4966,134.375 93.5,148C 105.5,156.667 117.5,156.667 129.5,148C 140.503,134.375 140.003,121.208 128,108.5C 127.503,106.19 127.337,103.857 127.5,101.5C 148.833,101.5 170.167,101.5 191.5,101.5C 191.663,103.857 191.497,106.19 191,108.5C 178.997,121.208 178.497,134.375 189.5,148C 201.5,156.667 213.5,156.667 225.5,148C 236.503,134.375 236.003,121.208 224,108.5C 223.503,106.19 223.337,103.857 223.5,101.5C 244.833,101.5 266.167,101.5 287.5,101.5C 287.663,103.857 287.497,106.19 287,108.5C 274.997,121.208 274.497,134.375 285.5,148C 297.5,156.667 309.5,156.667 321.5,148C 332.503,134.375 332.003,121.208 320,108.5C 319.503,106.19 319.337,103.857 319.5,101.5C 340.833,101.5 362.167,101.5 383.5,101.5C 383.663,103.857 383.497,106.19 383,108.5C 370.997,121.208 370.497,134.375 381.5,148C 393.5,156.667 405.5,156.667 417.5,148C 428.503,134.375 428.003,121.208 416,108.5C 415.503,106.19 415.337,103.857 415.5,101.5C 427.505,101.333 439.505,101.5 451.5,102C 458.598,104.679 462.431,109.845 463,117.5C 463.5,136.83 463.667,156.164 463.5,175.5C 324.833,175.5 186.167,175.5 47.5,175.5C 47.3334,156.164 47.5,136.83 48,117.5C 48.2477,109.441 52.081,104.108 59.5,101.5 Z M 98.5,133.5 C 103.949,138.22 110.283,139.72 117.5,138C 120.102,137.117 122.269,135.617 124,133.5C 121.002,141.415 115.169,144.248 106.5,142C 102.252,140.587 99.5852,137.754 98.5,133.5 Z M 194.5,133.5 C 199.949,138.22 206.283,139.72 213.5,138C 216.102,137.117 218.269,135.617 220,133.5C 217.002,141.415 211.169,144.248 202.5,142C 198.252,140.587 195.585,137.754 194.5,133.5 Z M 290.5,133.5 C 295.949,138.22 302.283,139.72 309.5,138C 312.102,137.117 314.269,135.617 316,133.5C 313.002,141.415 307.169,144.248 298.5,142C 294.252,140.587 291.585,137.754 290.5,133.5 Z M 386.5,133.5 C 391.949,138.22 398.283,139.72 405.5,138C 408.102,137.117 410.269,135.617 412,133.5C 409.002,141.415 403.169,144.248 394.5,142C 390.252,140.587 387.585,137.754 386.5,133.5 Z M 47.5,186.5 C 186.167,186.5 324.833,186.5 463.5,186.5C 463.667,234.501 463.5,282.501 463,330.5C 462.808,339.064 458.641,344.564 450.5,347C 440.568,348.977 430.734,348.477 421,345.5C 419.373,345.625 417.873,346.125 416.5,347C 401.636,390.774 374.636,424.774 335.5,449C 323.103,456.465 309.769,461.132 295.5,463C 222.5,463.667 149.5,463.667 76.5,463C 59.6667,460.833 50.1667,451.333 48,434.5C 47.5,351.834 47.3333,269.167 47.5,186.5 Z M 352.5,452.5 C 385.83,428.897 409.83,397.897 424.5,359.5C 433.071,359.535 441.738,359.368 450.5,359C 453.934,358.442 457.267,357.609 460.5,356.5C 454.706,387.598 438.372,411.432 411.5,428C 392.977,438.929 373.31,447.095 352.5,452.5 Z M 462.5,389.5 C 463.901,406.697 463.735,424.03 462,441.5C 457.507,454.661 448.34,461.828 434.5,463C 409.833,463.667 385.167,463.667 360.5,463C 388.846,454.995 414.512,441.995 437.5,424C 448.178,414.121 456.511,402.621 462.5,389.5 Z"/></g>
<g><path style="opacity:0.898" fill="#000000" d="M 241.5,226.5 C 289.503,222.414 325.336,241.08 349,282.5C 351.993,276.201 354.993,269.868 358,263.5C 363.263,261.14 366.763,262.64 368.5,268C 363.74,279.954 358.407,291.621 352.5,303C 350.5,303.667 348.5,303.667 346.5,303C 335.677,297.755 325.01,292.255 314.5,286.5C 312.358,281.448 313.858,278.448 319,277.5C 324.968,279.579 330.802,281.746 336.5,284C 310.985,245.921 275.652,231.588 230.5,241C 199.628,250.541 178.461,270.374 167,300.5C 163.393,303.269 160.06,302.936 157,299.5C 156.333,297.5 156.333,295.5 157,293.5C 172.99,255.663 201.157,233.33 241.5,226.5 Z"/></g>
<g><path style="opacity:0.894" fill="#000000" d="M 174.5,364.5 C 188.375,388.634 209.042,403.8 236.5,410C 288.491,416.513 324.824,395.846 345.5,348C 350.501,346.33 353.501,347.996 354.5,353C 339.295,394.521 309.628,417.854 265.5,423C 219.277,425.727 184.61,407.227 161.5,367.5C 158.577,373.015 155.91,378.682 153.5,384.5C 145.711,388.549 142.544,386.215 144,377.5C 148.07,366.61 152.904,356.11 158.5,346C 162.402,345.262 166.068,345.928 169.5,348C 178.904,352.451 188.07,357.284 197,362.5C 198.622,367.607 196.956,370.607 192,371.5C 186.006,369.587 180.172,367.253 174.5,364.5 Z"/></g>
</svg>
