<?xml version="1.0" encoding="UTF-8"?>
<!DOCTYPE svg PUBLIC "-//W3C//DTD SVG 1.1//EN" "http://www.w3.org/Graphics/SVG/1.1/DTD/svg11.dtd">
<svg xmlns="http://www.w3.org/2000/svg" version="1.1" width="512px" height="512px" style="shape-rendering:geometricPrecision; text-rendering:geometricPrecision; image-rendering:optimizeQuality; fill-rule:evenodd; clip-rule:evenodd" xmlns:xlink="http://www.w3.org/1999/xlink">
<g><path style="opacity:0.99" fill="#000000" d="M 68.5,-0.5 C 143.5,-0.5 218.5,-0.5 293.5,-0.5C 322.757,4.90125 343.59,21.2346 356,48.5C 358.449,54.6297 360.116,60.963 361,67.5C 361.667,86.8333 361.667,106.167 361,125.5C 355.535,138.337 346.035,142.503 332.5,138C 327.011,135.532 323.511,131.365 322,125.5C 321.667,110.167 321.333,94.8333 321,79.5C 318.5,55.6667 305.333,42.5 281.5,40C 214.5,39.3333 147.5,39.3333 80.5,40C 56.6667,42.5 43.5,55.6667 41,79.5C 40.3333,196.833 40.3333,314.167 41,431.5C 43.5,455.333 56.6667,468.5 80.5,471C 147.5,471.667 214.5,471.667 281.5,471C 305.333,468.5 318.5,455.333 321,431.5C 321.333,416.167 321.667,400.833 322,385.5C 327.465,372.663 336.965,368.497 350.5,373C 355.989,375.468 359.489,379.635 361,385.5C 361.667,404.833 361.667,424.167 361,443.5C 356.005,472.985 339.838,493.818 312.5,506C 306.172,508.327 299.838,510.16 293.5,511.5C 218.5,511.5 143.5,511.5 68.5,511.5C 35.6346,504.81 13.8013,485.477 3,453.5C 2.11839,450.211 1.45172,446.877 1,443.5C 0.333333,318.167 0.333333,192.833 1,67.5C 5.99505,38.0152 22.1617,17.1819 49.5,5C 55.8282,2.6729 62.1616,0.839566 68.5,-0.5 Z"/></g>
<g><path style="opacity:0.987" fill="#000000" d="M 511.5,243.5 C 511.5,252.167 511.5,260.833 511.5,269.5C 509.439,276.288 506.273,282.622 502,288.5C 485.167,305.333 468.333,322.167 451.5,339C 440.484,344.849 430.65,343.349 422,334.5C 417.333,326.5 417.333,318.5 422,310.5C 433.167,299.333 444.333,288.167 455.5,277C 373.833,276.667 292.167,276.333 210.5,276C 198.826,271.493 194.326,262.993 197,250.5C 198.833,243.333 203.333,238.833 210.5,237C 292.167,236.667 373.833,236.333 455.5,236C 444.333,224.833 433.167,213.667 422,202.5C 415.122,188.467 418.622,177.967 432.5,171C 439.249,169.669 445.582,170.669 451.5,174C 468.333,190.833 485.167,207.667 502,224.5C 506.273,230.378 509.439,236.712 511.5,243.5 Z"/></g>
</svg>
