<?xml version="1.0" encoding="UTF-8"?>
<!DOCTYPE svg PUBLIC "-//W3C//DTD SVG 1.1//EN" "http://www.w3.org/Graphics/SVG/1.1/DTD/svg11.dtd">
<svg xmlns="http://www.w3.org/2000/svg" version="1.1" width="512px" height="512px" style="shape-rendering:geometricPrecision; text-rendering:geometricPrecision; image-rendering:optimizeQuality; fill-rule:evenodd; clip-rule:evenodd" xmlns:xlink="http://www.w3.org/1999/xlink">
<g><path style="opacity:0.934" fill="#000000" d="M 138.5,57.5 C 163.836,57.3334 189.169,57.5 214.5,58C 218.277,60.9547 219.443,64.788 218,69.5C 208.5,79 199,88.5 189.5,98C 214.453,114.566 235.62,135.066 253,159.5C 266.933,183.8 266.933,208.133 253,232.5C 239.396,250.057 221.562,260.557 199.5,264C 173.103,268.773 147.769,265.44 123.5,254C 95.6012,236.695 84.7679,211.862 91,179.5C 96.6209,163.587 105.288,149.587 117,137.5C 131.329,123.434 146.495,110.434 162.5,98.5C 153.848,89.3475 145.014,80.3475 136,71.5C 132.729,66.1342 133.563,61.4675 138.5,57.5 Z M 162.5,74.5 C 171.657,73.3424 180.991,73.1757 190.5,74C 185.985,78.6819 181.319,83.1819 176.5,87.5C 171.813,83.1449 167.146,78.8115 162.5,74.5 Z M 175.5,109.5 C 201.322,125.153 222.822,145.486 240,170.5C 251.364,192.952 248.531,213.452 231.5,232C 218.653,242.175 203.986,247.841 187.5,249C 163.694,251.91 142.028,246.577 122.5,233C 106.785,217.64 102.285,199.473 109,178.5C 117.499,162.323 128.665,148.156 142.5,136C 153.399,126.923 164.399,118.09 175.5,109.5 Z"/></g>
<g><path style="opacity:0.919" fill="#000000" d="M 413.5,57.5 C 424.485,56.4569 427.985,61.1235 424,71.5C 392.082,123 360.416,174.666 329,226.5C 321.566,231.704 316.399,230.038 313.5,221.5C 345.827,166.171 379.16,111.505 413.5,57.5 Z"/></g>
<g><path style="opacity:0.931" fill="#000000" d="M 332.5,67.5 C 355.791,65.8011 368.791,76.4678 371.5,99.5C 369.745,119.422 358.911,130.089 339,131.5C 319.126,130.127 308.293,119.46 306.5,99.5C 308.3,83.0516 316.967,72.3849 332.5,67.5 Z M 336.5,83.5 C 351.726,84.9749 357.226,92.9749 353,107.5C 346.494,116.056 338.661,117.556 329.5,112C 319.846,99.491 322.18,89.991 336.5,83.5 Z"/></g>
<g><path style="opacity:0.94" fill="#000000" d="M 187.5,133.5 C 191.846,133.334 196.179,133.501 200.5,134C 205.833,139 205.833,144 200.5,149C 186.851,149.199 175.851,154.532 167.5,165C 176.5,165.333 185.5,165.667 194.5,166C 198.753,169.42 199.587,173.587 197,178.5C 196.097,179.701 194.931,180.535 193.5,181C 182.839,181.5 172.172,181.667 161.5,181.5C 161.5,183.833 161.5,186.167 161.5,188.5C 172.172,188.333 182.839,188.5 193.5,189C 199.747,193.514 200.08,198.514 194.5,204C 185.5,204.333 176.5,204.667 167.5,205C 172.029,210.867 177.695,215.2 184.5,218C 190.838,219.025 197.005,220.525 203,222.5C 206.872,231.623 203.872,236.29 194,236.5C 172.826,234.656 157.659,224.156 148.5,205C 143.054,204.899 137.721,204.232 132.5,203C 128.448,191.868 132.448,187.035 144.5,188.5C 144.5,186.167 144.5,183.833 144.5,181.5C 132.883,183.063 128.716,178.396 132,167.5C 132.75,166.874 133.584,166.374 134.5,166C 139.167,165.667 143.833,165.333 148.5,165C 156.368,147.949 169.368,137.449 187.5,133.5 Z"/></g>
<g><path style="opacity:0.927" fill="#000000" d="M 401.5,145.5 C 423.869,145.038 436.535,155.871 439.5,178C 434.981,203.758 419.981,213.758 394.5,208C 377.921,199.338 371.755,185.838 376,167.5C 380.431,155.379 388.931,148.045 401.5,145.5 Z M 401.5,162.5 C 415.318,161.489 422.151,167.822 422,181.5C 417.873,192.146 410.373,195.646 399.5,192C 390.771,185.677 388.938,177.844 394,168.5C 396.114,165.879 398.614,163.879 401.5,162.5 Z"/></g>
<g><path style="opacity:0.939" fill="#000000" d="M 424.5,243.5 C 446.836,243.333 469.169,243.5 491.5,244C 493.667,244.833 495.167,246.333 496,248.5C 496.667,306.5 496.667,364.5 496,422.5C 495.167,424.667 493.667,426.167 491.5,427C 469.167,427.667 446.833,427.667 424.5,427C 422.333,426.167 420.833,424.667 420,422.5C 419.667,418.167 419.333,413.833 419,409.5C 383.076,424.253 346.909,438.42 310.5,452C 295.077,455.557 279.743,455.223 264.5,451C 185.349,423.728 106.349,396.061 27.5,368C 15.7039,359.279 11.8706,347.779 16,333.5C 22.2103,319.978 32.7103,314.144 47.5,316C 92.4791,322.719 137.479,329.219 182.5,335.5C 180.597,317.785 187.93,305.952 204.5,300C 215.612,298.879 226.779,298.379 238,298.5C 255.505,298.927 273.005,299.093 290.5,299C 330.122,275.075 373.122,263.908 419.5,265.5C 419.334,259.824 419.501,254.157 420,248.5C 421.025,246.313 422.525,244.646 424.5,243.5 Z M 435.5,259.5 C 450.167,259.5 464.833,259.5 479.5,259.5C 479.5,309.833 479.5,360.167 479.5,410.5C 464.833,410.5 450.167,410.5 435.5,410.5C 435.5,360.167 435.5,309.833 435.5,259.5 Z M 398.5,281.5 C 405.5,281.5 412.5,281.5 419.5,281.5C 419.667,318.168 419.5,354.835 419,391.5C 383.596,405.858 348.096,420.025 312.5,434C 296.833,438.667 281.167,438.667 265.5,434C 188.758,407.197 112.091,380.197 35.5,353C 28.2924,343.274 30.4591,336.107 42,331.5C 92.079,339.274 142.246,346.774 192.5,354C 197.345,357.422 202.678,359.755 208.5,361C 246.5,361.667 284.5,361.667 322.5,361C 329.606,356.899 330.273,351.899 324.5,346C 287.833,345.667 251.167,345.333 214.5,345C 203.137,343.973 197.97,337.807 199,326.5C 202.339,318.356 208.505,314.356 217.5,314.5C 243.82,315.631 270.153,315.798 296.5,315C 327.855,295.492 361.855,284.326 398.5,281.5 Z"/></g>
</svg>
