<?xml version="1.0" encoding="UTF-8"?>
<!DOCTYPE svg PUBLIC "-//W3C//DTD SVG 1.1//EN" "http://www.w3.org/Graphics/SVG/1.1/DTD/svg11.dtd">
<svg xmlns="http://www.w3.org/2000/svg" version="1.1" width="512px" height="512px" style="shape-rendering:geometricPrecision; text-rendering:geometricPrecision; image-rendering:optimizeQuality; fill-rule:evenodd; clip-rule:evenodd" xmlns:xlink="http://www.w3.org/1999/xlink">
<g><path style="opacity:0.945" fill="#000000" d="M 221.5,23.5 C 226.618,22.889 231.285,24.0557 235.5,27C 297.67,63.2526 360.003,99.2526 422.5,135C 424.57,135.948 426.07,137.448 427,139.5C 427.333,190.167 427.667,240.833 428,291.5C 474.81,317.126 493.81,356.459 485,409.5C 469.906,458.416 436.739,484.416 385.5,487.5C 350.751,486.792 322.751,472.792 301.5,445.5C 277.663,459.586 253.663,473.419 229.5,487C 226.833,487.667 224.167,487.667 221.5,487C 157.167,450 92.8333,413 28.5,376C 26.4299,375.052 24.9299,373.552 24,371.5C 23.0061,293.418 23.3394,215.418 25,137.5C 90.6447,99.5995 156.145,61.5995 221.5,23.5 Z M 224.5,41.5 C 283.935,74.7184 342.935,108.718 401.5,143.5C 372.579,160.879 343.413,177.879 314,194.5C 259.5,158 205,121.5 150.5,85C 175.394,70.7257 200.061,56.2257 224.5,41.5 Z M 132.5,94.5 C 187.786,130.483 242.786,166.983 297.5,204C 273.629,218.033 249.629,231.866 225.5,245.5C 166.575,211.899 107.908,177.899 49.5,143.5C 77.3946,127.392 105.061,111.059 132.5,94.5 Z M 39.5,158.5 C 98.6085,192.224 157.608,226.224 216.5,260.5C 217.833,328.5 217.833,396.5 216.5,464.5C 157.833,430.5 99.1667,396.5 40.5,362.5C 39.5,294.503 39.1667,226.503 39.5,158.5 Z M 409.5,158.5 C 410.665,200.998 410.831,243.665 410,286.5C 362.604,276.876 325.271,291.876 298,331.5C 282.573,358.724 279.239,387.391 288,417.5C 289.449,421.85 291.282,426.016 293.5,430C 273.833,441.5 254.167,453 234.5,464.5C 233.167,396.5 233.167,328.5 234.5,260.5C 257.833,246.833 281.167,233.167 304.5,219.5C 305.333,241.159 305.833,262.826 306,284.5C 309.722,289.518 314.222,290.351 319.5,287C 320.126,286.25 320.626,285.416 321,284.5C 321.333,259.5 321.667,234.5 322,209.5C 351.476,192.852 380.642,175.852 409.5,158.5 Z M 386.5,299.5 C 431.897,303.729 459.73,328.063 470,372.5C 473.866,414.613 457.033,445.113 419.5,464C 378.45,478.542 343.95,469.042 316,435.5C 297.225,405.805 295.558,375.138 311,343.5C 328.437,315.562 353.603,300.895 386.5,299.5 Z"/></g>
<g><path style="opacity:0.92" fill="#000000" d="M 427.5,338.5 C 437.761,338.377 441.095,343.044 437.5,352.5C 418.808,376.691 400.308,401.025 382,425.5C 378.901,429.966 374.735,431.466 369.5,430C 357.667,416.167 345.833,402.333 334,388.5C 332.172,377.992 336.338,374.159 346.5,377C 355.667,387.5 364.833,398 374,408.5C 391.345,384.673 409.178,361.34 427.5,338.5 Z"/></g>
</svg>
