<?xml version="1.0" standalone="no"?>
<!DOCTYPE svg PUBLIC "-//W3C//DTD SVG 20010904//EN"
 "http://www.w3.org/TR/2001/REC-SVG-20010904/DTD/svg10.dtd">
<svg version="1.0" xmlns="http://www.w3.org/2000/svg"
 width="512.000000pt" height="512.000000pt" viewBox="0 0 512.000000 512.000000"
 preserveAspectRatio="xMidYMid meet">

<g transform="translate(0.000000,512.000000) scale(0.100000,-0.100000)"
fill="#000000" stroke="none">
<path d="M2305 4679 c-478 -60 -908 -271 -1250 -614 -103 -102 -262 -296 -278
-338 -3 -7 -80 62 -176 158 l-171 170 0 -533 0 -532 532 0 533 0 -208 208
-209 209 70 104 c426 634 1218 907 1940 670 514 -169 917 -567 1087 -1073 272
-813 -90 -1692 -853 -2073 -321 -161 -661 -213 -1030 -159 -57 9 -105 14 -107
12 -6 -6 -94 -402 -90 -406 7 -8 84 -22 193 -37 129 -17 375 -20 507 -5 382
43 751 191 1065 428 181 137 403 387 530 596 274 455 367 1019 254 1546 -119
553 -450 1029 -939 1350 -247 161 -598 285 -910 320 -107 12 -391 11 -490 -1z"/>
<path d="M2500 3726 l0 -114 -52 -12 c-197 -45 -353 -193 -404 -381 -24 -92
-28 -213 -10 -318 37 -213 138 -332 386 -456 266 -133 335 -214 335 -390 0
-104 -25 -169 -78 -207 -44 -32 -148 -37 -197 -10 -66 36 -120 160 -120 279
l0 43 -205 0 -204 0 4 -27 c2 -16 6 -60 9 -99 12 -146 76 -294 171 -389 63
-62 181 -125 273 -144 l62 -14 0 -103 0 -104 105 0 105 0 0 103 0 103 70 18
c104 26 185 71 254 140 107 107 156 237 156 415 -1 269 -100 432 -355 580
-222 129 -243 143 -288 187 -68 66 -89 117 -89 214 0 152 56 240 152 240 96 0
165 -101 177 -262 l6 -78 200 2 201 3 -3 65 c-11 288 -154 498 -396 580 l-50
17 -3 116 -3 117 -104 0 -105 0 0 -114z"/>
<path d="M430 2478 c1 -138 44 -418 64 -418 6 1 99 22 206 48 173 43 195 50
193 68 0 10 -8 71 -17 134 -9 63 -19 145 -22 183 l-6 67 -209 0 -209 0 0 -82z"/>
<path d="M840 1708 c-101 -49 -186 -91 -188 -93 -13 -12 192 -338 237 -379 19
-17 24 -14 175 108 85 70 158 131 161 136 3 4 -22 46 -55 92 -33 46 -73 108
-89 138 -54 99 -32 99 -241 -2z"/>
<path d="M1424 1116 c-43 -55 -103 -131 -132 -168 l-52 -67 97 -68 c98 -68
279 -173 298 -173 14 0 189 365 182 377 -3 5 -27 20 -54 34 -26 13 -95 56
-154 95 l-106 70 -79 -100z"/>
</g>
</svg>
