<?xml version="1.0" encoding="UTF-8"?>
<!DOCTYPE svg PUBLIC "-//W3C//DTD SVG 1.1//EN" "http://www.w3.org/Graphics/SVG/1.1/DTD/svg11.dtd">
<svg xmlns="http://www.w3.org/2000/svg" version="1.1" width="512px" height="512px" style="shape-rendering:geometricPrecision; text-rendering:geometricPrecision; image-rendering:optimizeQuality; fill-rule:evenodd; clip-rule:evenodd" xmlns:xlink="http://www.w3.org/1999/xlink">
<g><path style="opacity:0.942" fill="#000000" d="M 259.5,-0.5 C 268.5,-0.5 277.5,-0.5 286.5,-0.5C 315.535,4.70259 338.035,19.7026 354,44.5C 370.483,74.2659 371.649,104.599 357.5,135.5C 432.517,147.029 482.017,188.695 506,260.5C 508.172,269.235 510.005,277.902 511.5,286.5C 511.5,299.833 511.5,313.167 511.5,326.5C 503.527,382.48 475.527,425.147 427.5,454.5C 426.667,472.157 426.167,489.824 426,507.5C 424.624,508.705 423.458,510.038 422.5,511.5C 393.833,511.5 365.167,511.5 336.5,511.5C 335.542,510.038 334.376,508.705 333,507.5C 332.5,497.506 332.334,487.506 332.5,477.5C 292.833,477.5 253.167,477.5 213.5,477.5C 213.666,487.172 213.5,496.839 213,506.5C 211.975,508.687 210.475,510.354 208.5,511.5C 180.167,511.5 151.833,511.5 123.5,511.5C 121.045,509.86 119.545,507.527 119,504.5C 118.667,487.833 118.333,471.167 118,454.5C 81.1018,431.921 55.6018,400.088 41.5,359C 29.5,358.667 17.5,358.333 5.5,358C 2.97739,356.64 0.977392,354.807 -0.5,352.5C -0.5,327.5 -0.5,302.5 -0.5,277.5C 0.646381,275.525 2.31305,274.025 4.5,273C 15.495,272.5 26.495,272.333 37.5,272.5C 45.4163,234.328 63.9163,202.328 93,176.5C 93.0194,152.412 93.686,128.412 95,104.5C 97.909,102.142 101.242,101.142 105,101.5C 132.894,103.769 154.561,116.436 170,139.5C 176.233,138.434 182.399,137.1 188.5,135.5C 171.931,97.7139 176.431,62.7139 202,30.5C 217.741,13.7142 236.908,3.38082 259.5,-0.5 Z M 262.5,17.5 C 302.06,15.3481 329.56,32.3481 345,68.5C 355.274,105.761 344.774,135.595 313.5,158C 277.676,177.112 245.176,172.612 216,144.5C 191.641,113.13 190.307,80.7969 212,47.5C 225.26,31.3913 242.093,21.3913 262.5,17.5 Z M 111.5,120.5 C 126.803,123.068 139.303,130.401 149,142.5C 152.129,147.926 155.629,153.093 159.5,158C 173.192,156.566 186.859,155.233 200.5,154C 204.987,159.909 210.32,164.909 216.5,169C 206.839,169.5 197.172,169.666 187.5,169.5C 187.5,175.5 187.5,181.5 187.5,187.5C 244.5,187.5 301.5,187.5 358.5,187.5C 358.5,181.5 358.5,175.5 358.5,169.5C 348.828,169.666 339.161,169.5 329.5,169C 335.316,164.018 340.983,158.851 346.5,153.5C 403.919,158.106 447.085,185.106 476,234.5C 490.265,261.492 495.932,290.159 493,320.5C 488.32,330.284 480.82,333.45 470.5,330C 462.075,324.417 459.075,316.584 461.5,306.5C 455.5,306.5 449.5,306.5 443.5,306.5C 440.61,327.908 449.277,342.075 469.5,349C 475.885,349.535 482.219,349.535 488.5,349C 479.075,379.207 462.408,404.54 438.5,425C 429.26,431.871 419.76,438.371 410,444.5C 408.545,460.763 408.045,477.096 408.5,493.5C 389.167,493.5 369.833,493.5 350.5,493.5C 350.666,484.494 350.5,475.494 350,466.5C 349.167,463 347,460.833 343.5,460C 320,459.833 296.5,459.667 273,459.5C 248.439,459.347 223.939,459.847 199.5,461C 197.513,462.319 196.346,464.152 196,466.5C 195.5,475.494 195.334,484.494 195.5,493.5C 175.833,493.5 156.167,493.5 136.5,493.5C 136.971,476.738 136.471,460.072 135,443.5C 108.818,429.652 88.1513,409.985 73,384.5C 65.9509,370.839 59.7842,356.839 54.5,342.5C 53.5,342 52.5,341.5 51.5,341C 40.1716,340.5 28.8382,340.333 17.5,340.5C 17.5,323.833 17.5,307.167 17.5,290.5C 27.1724,290.666 36.8391,290.5 46.5,290C 49.196,289.31 51.3626,287.81 53,285.5C 59.2869,245.574 77.9535,212.908 109,187.5C 109.667,186.167 110.333,184.833 111,183.5C 111.5,162.503 111.667,141.503 111.5,120.5 Z M 133.5,255.5 C 147.828,255.994 153.995,263.327 152,277.5C 146.638,288.431 138.472,291.265 127.5,286C 119.298,279.406 117.798,271.573 123,262.5C 125.998,259.262 129.498,256.929 133.5,255.5 Z"/></g>
<g><path style="opacity:0.936" fill="#000000" d="M 422.5,-0.5 C 425.167,-0.5 427.833,-0.5 430.5,-0.5C 431.172,0.267389 432.005,0.934056 433,1.5C 436.869,20.036 448.036,31.2026 466.5,35C 470.699,40.2814 470.366,45.2814 465.5,50C 453.195,52.2227 444.028,58.7227 438,69.5C 436.665,73.5115 435.331,77.5115 434,81.5C 429,86.8333 424,86.8333 419,81.5C 415.167,64.3333 404.667,53.8333 387.5,50C 382.634,45.2814 382.301,40.2814 386.5,35C 404.676,31.491 415.509,20.6577 419,2.5C 420.145,1.36362 421.312,0.363622 422.5,-0.5 Z M 425.5,31.5 C 429.287,35.1124 433.287,38.6124 437.5,42C 433.366,45.0566 429.699,48.5566 426.5,52.5C 422.682,49.1824 419.015,45.6824 415.5,42C 419.734,39.2681 423.067,35.7681 425.5,31.5 Z"/></g>
<g><path style="opacity:0.926" fill="#000000" d="M 269.5,41.5 C 270.833,41.5 272.167,41.5 273.5,41.5C 273.5,47.5 273.5,53.5 273.5,59.5C 256.225,60.9431 245.059,69.9431 240,86.5C 239.503,88.8098 239.337,91.1432 239.5,93.5C 233.5,93.5 227.5,93.5 221.5,93.5C 222.365,70.4636 233.365,54.2969 254.5,45C 259.545,43.4253 264.545,42.2587 269.5,41.5 Z"/></g>
<g><path style="opacity:0.929" fill="#000000" d="M 306.5,93.5 C 312.5,93.5 318.5,93.5 324.5,93.5C 321.54,125.126 304.207,142.46 272.5,145.5C 272.5,139.5 272.5,133.5 272.5,127.5C 292.877,125.123 304.21,113.79 306.5,93.5 Z"/></g>
<g><path style="opacity:0.934" fill="#000000" d="M 131.5,237.5 C 155.231,237.07 168.564,248.57 171.5,272C 168.078,297.086 153.744,308.419 128.5,306C 107.414,298.908 98.9144,284.408 103,262.5C 107.74,248.585 117.24,240.252 131.5,237.5 Z M 133.5,255.5 C 129.498,256.929 125.998,259.262 123,262.5C 117.798,271.573 119.298,279.406 127.5,286C 138.472,291.265 146.638,288.431 152,277.5C 153.995,263.327 147.828,255.994 133.5,255.5 Z"/></g>
</svg>
