<?xml version="1.0" encoding="UTF-8"?>
<!DOCTYPE svg PUBLIC "-//W3C//DTD SVG 1.1//EN" "http://www.w3.org/Graphics/SVG/1.1/DTD/svg11.dtd">
<svg xmlns="http://www.w3.org/2000/svg" version="1.1" width="512px" height="512px" style="shape-rendering:geometricPrecision; text-rendering:geometricPrecision; image-rendering:optimizeQuality; fill-rule:evenodd; clip-rule:evenodd" xmlns:xlink="http://www.w3.org/1999/xlink">
<g><path style="opacity:0.931" fill="#000000" d="M 247.5,26.5 C 292.14,25.6783 322.307,46.0116 338,87.5C 347.938,129.711 335.105,162.878 299.5,187C 259.971,206.716 224.138,201.549 192,171.5C 167.134,141.29 162.801,108.29 179,72.5C 194.23,45.8047 217.063,30.4713 247.5,26.5 Z M 248.5,43.5 C 283.486,42.7292 307.653,58.3958 321,90.5C 330.188,126.609 319.022,154.442 287.5,174C 250.881,189.139 220.714,180.972 197,149.5C 179.658,116.891 183.825,87.391 209.5,61C 220.852,51.3209 233.852,45.4876 248.5,43.5 Z"/></g>
<g><path style="opacity:0.927" fill="#000000" d="M 253.5,62.5 C 260.789,62.4551 264.455,66.1218 264.5,73.5C 268.967,73.1326 273.3,73.6326 277.5,75C 280.803,78.795 281.303,82.9617 279,87.5C 278.097,88.7014 276.931,89.5348 275.5,90C 267.833,90.3333 260.167,90.6667 252.5,91C 245.941,95.2451 245.941,99.5784 252.5,104C 272.071,104.235 281.238,114.069 280,133.5C 277.828,141.671 272.828,147.338 265,150.5C 264.506,160.354 259.673,163.854 250.5,161C 247.814,158.454 246.814,155.287 247.5,151.5C 243.154,151.666 238.821,151.499 234.5,151C 230.87,147.95 229.703,144.117 231,139.5C 232.637,137.19 234.804,135.69 237.5,135C 244.833,134.667 252.167,134.333 259.5,134C 262.991,132.179 264.157,129.346 263,125.5C 262.5,123.667 261.333,122.5 259.5,122C 238.936,121.985 229.436,111.819 231,91.5C 233.263,82.9051 238.596,77.2384 247,74.5C 246.369,68.7465 248.536,64.7465 253.5,62.5 Z"/></g>
<g><path style="opacity:0.933" fill="#000000" d="M 511.5,300.5 C 511.5,303.167 511.5,305.833 511.5,308.5C 490.425,323.719 469.425,339.219 448.5,355C 440.888,358.934 433.055,359.434 425,356.5C 420.187,358.907 415.52,361.573 411,364.5C 410.333,365.167 410.333,365.833 411,366.5C 420.612,374.665 424.278,384.999 422,397.5C 415.701,415.401 403.201,422.568 384.5,419C 381.804,418.235 379.304,417.068 377,415.5C 369.889,437.306 355.389,444.639 333.5,437.5C 327.18,456.305 314.18,464.138 294.5,461C 290.131,459.733 286.297,457.567 283,454.5C 278.146,474.027 265.646,482.194 245.5,479C 243.481,478.55 241.648,477.717 240,476.5C 228.777,486.08 216.944,486.914 204.5,479C 199.572,474.916 196.572,469.749 195.5,463.5C 182.608,465.639 172.441,461.306 165,450.5C 162.924,447.107 161.758,443.44 161.5,439.5C 142.792,440.446 131.792,431.779 128.5,413.5C 114.754,413.922 104.921,407.922 99,395.5C 94.8158,382.635 97.6491,371.635 107.5,362.5C 104.636,356.469 100.802,351.136 96,346.5C 86.5577,359.599 74.7244,362.099 60.5,354C 40.4177,338.314 20.0843,323.147 -0.5,308.5C -0.5,305.833 -0.5,303.167 -0.5,300.5C 3.36733,296.258 8.034,295.425 13.5,298C 32.4473,311.28 51.114,324.947 69.5,339C 72.2778,341.258 75.2778,341.758 78.5,340.5C 100.5,308.5 122.5,276.5 144.5,244.5C 143.408,241.906 141.741,239.739 139.5,238C 124.73,228.893 110.23,219.393 96,209.5C 93.1586,199.338 96.9919,195.172 107.5,197C 120.899,206.062 134.566,214.728 148.5,223C 152.69,225.69 156.024,229.19 158.5,233.5C 223.167,234.833 287.833,234.833 352.5,233.5C 354.976,229.19 358.31,225.69 362.5,223C 376.434,214.728 390.101,206.062 403.5,197C 414.008,195.172 417.841,199.338 415,209.5C 400.77,219.393 386.27,228.893 371.5,238C 369.443,239.719 367.776,241.719 366.5,244C 388.371,276.237 410.371,308.403 432.5,340.5C 435.722,341.758 438.722,341.258 441.5,339C 459.886,324.947 478.553,311.28 497.5,298C 502.966,295.425 507.633,296.258 511.5,300.5 Z M 159.5,251.5 C 170.505,251.333 181.505,251.5 192.5,252C 169.648,269.891 162.481,292.724 171,320.5C 180.676,330.162 191.176,330.996 202.5,323C 208.829,318.005 213.662,311.838 217,304.5C 225.118,295.238 235.285,291.738 247.5,294C 251.951,295.122 255.951,297.122 259.5,300C 271.816,316.821 288.483,324.487 309.5,323C 312.893,323.798 316.226,324.798 319.5,326C 346.672,343.752 373.672,361.752 400.5,380C 406.043,385.51 406.876,391.677 403,398.5C 398.608,403.188 393.441,404.355 387.5,402C 359.66,383.247 331.993,364.247 304.5,345C 292.583,340.253 288.083,344.087 291,356.5C 312.587,371.377 334.087,386.377 355.5,401.5C 361.974,410.521 360.307,417.688 350.5,423C 348.167,423.667 345.833,423.667 343.5,423C 321.56,408.725 299.893,394.058 278.5,379C 267.079,376.755 262.912,381.255 266,392.5C 280.747,402.457 295.581,412.291 310.5,422C 316.716,428.387 317.049,435.054 311.5,442C 308.11,444.245 304.443,445.245 300.5,445C 296.261,443.098 292.261,440.765 288.5,438C 277.517,429.508 266.184,421.508 254.5,414C 245.197,413.302 241.697,417.469 244,426.5C 250.333,431.5 256.667,436.5 263,441.5C 268.032,448.689 267.199,455.189 260.5,461C 256.961,462.504 253.295,462.837 249.5,462C 251.474,446.288 245.141,435.288 230.5,429C 238.397,414.764 236.731,401.764 225.5,390C 215.322,382.932 204.489,381.765 193,386.5C 183.122,371.041 169.622,366.708 152.5,373.5C 145.985,362.571 136.319,356.737 123.5,356C 119.701,346.426 113.701,338.426 105.5,332C 123.892,305.368 141.892,278.535 159.5,251.5 Z M 227.5,251.5 C 268.839,251.167 310.172,251.5 351.5,252.5C 371.971,282.804 392.638,312.971 413.5,343C 406.962,347.033 400.296,350.866 393.5,354.5C 373.637,340.804 353.637,327.304 333.5,314C 322.377,307.574 310.377,304.574 297.5,305C 291.695,304.177 286.361,302.177 281.5,299C 265.232,276.741 244.232,270.741 218.5,281C 208.708,286.405 201.542,294.239 197,304.5C 194.536,307.798 191.37,310.132 187.5,311.5C 181.477,293.064 186.477,277.897 202.5,266C 211.224,261.645 219.557,256.812 227.5,251.5 Z M 123.5,373.5 C 135.572,374.988 139.405,381.322 135,392.5C 129.965,397.232 124.465,397.732 118.5,394C 111.89,384.928 113.557,378.094 123.5,373.5 Z M 161.5,387.5 C 172.824,386.326 177.991,391.326 177,402.5C 173.111,409.11 168.611,415.277 163.5,421C 155.961,424.322 150.128,422.489 146,415.5C 145.333,412.833 145.333,410.167 146,407.5C 149.989,399.821 155.156,393.155 161.5,387.5 Z M 203.5,400.5 C 213.679,400.51 218.512,405.51 218,415.5C 211.607,425.894 204.44,435.727 196.5,445C 186.876,448.855 180.543,445.689 177.5,435.5C 178.154,433.885 178.654,432.218 179,430.5C 184.755,421.99 190.755,413.657 197,405.5C 198.965,403.45 201.132,401.783 203.5,400.5 Z M 221.5,445.5 C 231.436,447.039 234.27,452.372 230,461.5C 225.913,467.783 220.747,468.95 214.5,465C 210.426,460.03 210.593,455.197 215,450.5C 216.805,448.174 218.972,446.508 221.5,445.5 Z"/></g>
</svg>
