<?xml version="1.0" ?><svg viewBox="0 0 24 24" xmlns="http://www.w3.org/2000/svg"><defs><style>.cls-1,.cls-2{fill:none;}.cls-2{stroke:#000;stroke-linecap:round;stroke-linejoin:round;}</style></defs><g data-name="Layer 2" id="Layer_2"><g id="Workspace"><rect class="cls-1" height="24" width="24"/><path class="cls-2" d="M10.22,7l.28-2h3l.28,2a5.53,5.53,0,0,1,1.69,1l1.84-.74,1.5,2.6L17.25,11a5.33,5.33,0,0,1,0,2l1.56,1.22-1.5,2.6-1.84-.74a4.58,4.58,0,0,1-.8.56,4.73,4.73,0,0,1-.89.41l-.28,2h-3l-.28-2a5.53,5.53,0,0,1-1.69-1l-1.84.74-1.5-2.6L6.75,13a5.33,5.33,0,0,1,0-2L5.19,9.8l1.5-2.6,1.84.74a4.58,4.58,0,0,1,.8-.56A4.73,4.73,0,0,1,10.22,7Z"/><circle class="cls-2" cx="12" cy="12" r="2.5"/></g></g></svg>