<?xml version="1.0" encoding="UTF-8"?>
<!DOCTYPE svg PUBLIC "-//W3C//DTD SVG 1.1//EN" "http://www.w3.org/Graphics/SVG/1.1/DTD/svg11.dtd">
<svg xmlns="http://www.w3.org/2000/svg" version="1.1" width="512px" height="512px" style="shape-rendering:geometricPrecision; text-rendering:geometricPrecision; image-rendering:optimizeQuality; fill-rule:evenodd; clip-rule:evenodd" xmlns:xlink="http://www.w3.org/1999/xlink">
<g><path style="opacity:0.944" fill="#000000" d="M 192.5,-0.5 C 234.5,-0.5 276.5,-0.5 318.5,-0.5C 348.663,8.58672 362.663,29.0867 360.5,61C 360.333,67.1667 360.167,73.3333 360,79.5C 355.7,84.4459 351.033,84.7793 346,80.5C 344.728,68.5705 344.062,56.5705 344,44.5C 340.602,29.4356 331.436,19.9356 316.5,16C 296.195,14.8837 275.862,14.3837 255.5,14.5C 235.138,14.3837 214.805,14.8837 194.5,16C 179.564,19.9356 170.398,29.4356 167,44.5C 166.667,142.5 166.333,240.5 166,338.5C 164.02,343.906 160.186,345.739 154.5,344C 153.333,342.833 152.167,341.667 151,340.5C 150.333,241.167 150.333,141.833 151,42.5C 155.938,19.3979 169.771,5.06454 192.5,-0.5 Z"/></g>
<g><path style="opacity:0.927" fill="#000000" d="M 245.5,33.5 C 280.37,30.8934 302.87,46.2267 313,79.5C 317.368,106.591 308.201,127.758 285.5,143C 262.689,154.093 240.689,152.76 219.5,139C 193.199,114.028 189.699,86.1949 209,55.5C 218.881,44.1523 231.048,36.819 245.5,33.5 Z M 247.5,49.5 C 272.314,47.5058 288.814,58.1724 297,81.5C 300.889,108.61 289.723,126.11 263.5,134C 238.664,136.482 222.164,125.982 214,102.5C 210.319,75.364 221.486,57.6973 247.5,49.5 Z"/></g>
<g><path style="opacity:0.939" fill="#000000" d="M 286.5,511.5 C 265.833,511.5 245.167,511.5 224.5,511.5C 222.3,509.738 221.133,507.404 221,504.5C 220.5,485.836 220.333,467.17 220.5,448.5C 197.539,452.23 178.039,445.896 162,429.5C 156.017,422.227 152.35,413.894 151,404.5C 150.333,392.5 150.333,380.5 151,368.5C 154.086,363.248 158.253,362.248 163.5,365.5C 164.584,366.665 165.417,367.998 166,369.5C 166.333,380.833 166.667,392.167 167,403.5C 170.762,417.594 179.595,426.761 193.5,431C 233.128,432.637 272.795,432.97 312.5,432C 328.999,429.169 339.499,419.669 344,403.5C 344.333,305.167 344.667,206.833 345,108.5C 349.138,101.473 354.138,100.806 360,106.5C 360.667,205.833 360.667,305.167 360,404.5C 354.63,429.202 339.464,443.702 314.5,448C 306.507,448.5 298.507,448.666 290.5,448.5C 290.667,467.17 290.5,485.836 290,504.5C 289.867,507.404 288.7,509.738 286.5,511.5 Z M 236.5,448.5 C 249.167,448.5 261.833,448.5 274.5,448.5C 274.5,464.5 274.5,480.5 274.5,496.5C 261.833,496.5 249.167,496.5 236.5,496.5C 236.5,480.5 236.5,464.5 236.5,448.5 Z"/></g>
<g><path style="opacity:0.923" fill="#000000" d="M 248.5,165.5 C 279.826,164.398 300.993,178.398 312,207.5C 318.477,236.756 309.31,259.589 284.5,276C 260.324,287.634 237.657,285.3 216.5,269C 195.327,247.462 191.16,222.962 204,195.5C 214.256,178.628 229.089,168.628 248.5,165.5 Z M 250.5,181.5 C 279.097,181.763 295.097,196.097 298.5,224.5C 295.843,250.491 281.509,264.824 255.5,267.5C 229.5,264.833 215.167,250.5 212.5,224.5C 214.667,200.677 227.334,186.344 250.5,181.5 Z"/></g>
<g><path style="opacity:0.925" fill="#000000" d="M 247.5,296.5 C 276.433,294.709 297.267,306.709 310,332.5C 319.564,362.133 312.064,386.3 287.5,405C 260.058,419.591 234.891,416.424 212,395.5C 192.189,369.965 191.522,343.965 210,317.5C 220.164,306.172 232.664,299.172 247.5,296.5 Z M 249.5,312.5 C 278.635,312.304 294.968,326.637 298.5,355.5C 295.844,381.49 281.51,395.823 255.5,398.5C 229.49,395.823 215.156,381.49 212.5,355.5C 214.524,332.152 226.857,317.818 249.5,312.5 Z"/></g>
</svg>
